<mxfile host="app.diagrams.net" modified="2023-08-10T10:09:07.930Z" agent="Mozilla/5.0 (iPad; CPU OS 16_5_1 like Mac OS X) AppleWebKit/605.1.15 (KHTML, like Gecko) Version/16.5.2 Mobile/15E148 Safari/604.1" version="21.6.7" etag="mA3z7Omsqu1eYwefCnfB" type="github">
  <diagram name="Page-1" id="PgVRx1FWwZm2ewYR_zYa">
    <mxGraphModel>
      <root>
        <mxCell id="0" />
        <mxCell id="1" parent="0" />
      </root>
    </mxGraphModel>
  </diagram>
</mxfile>
